# xmcd
#
# Track frame offsets:
#	150
#	13939
#	30256
#	47419
#	60442
#	81649
#	96271
#	112165
#	126746
#	143161
#	159123
#	180067
#	196678
#	211059
#	229409
#	245449
#
# Disc length: 3500 seconds
#
# Revision: 1
# Processed by: cddbd v1.5.2PL0 Copyright (c) Steve Scherf et al.
# Submitted via: audiograbber 1.83.01
#
DISCID=d00daa10
DTITLE=Various Artist - Country Heat 2015
DYEAR=2015
DGENRE=Country
TTITLE0=Brad Paisley - River Bank
TTITLE1=Blake Shelton - Sure Be Cool If You Did
TTITLE2=Jerrod Nieman - Drink To That All Night
TTITLE3=Miranda Lambert and Carrie Underwood - Somethin' Bad
TTITLE4=Zac Brown Band - Sweet Annie
TTITLE5=Chris Young - Who I Am With You
TTITLE6=Lee Brice - Parking Lot Party
TTITLE7=Jake Owen - Beachin'
TTITLE8=Brett Kissel - Tough People Do
TTITLE9=Gord Bamford - Unreal
TTITLE10=Hunter Hayes - Invisible
TTITLE11=Dan and Shay - 19 You and Me
TTITLE12=Tyler Farr - Whiskey In My Water
TTITLE13=Paul Brandt - Forever Summer
TTITLE14=Kira Isabella - Quarterback
TTITLE15=Cole Swindell - Hope You Get Lonely Tonight
EXTD=
EXTT0=
EXTT1=
EXTT2=
EXTT3=
EXTT4=
EXTT5=
EXTT6=
EXTT7=
EXTT8=
EXTT9=
EXTT10=
EXTT11=
EXTT12=
EXTT13=
EXTT14=
EXTT15=
PLAYORDER=
